<svg xmlns="http://www.w3.org/2000/svg" width="378" height="120" fill="none"><defs/><path fill="#1E326E" d="M96.28 86.52H89V33h7.28v53.52zM117.53 73.57h.31l8.75-22.6h7.2l-15.25 35.76h-2.33l-14.47-35.77h7.2l8.6 22.6zM166.98 68.61c0 2.64-.44 5.06-1.32 7.28a16.89 16.89 0 01-8.67 9.52 15.9 15.9 0 01-12.7 0c-1.96-.93-3.69-2.2-5.19-3.8a17.6 17.6 0 01-3.4-5.72 20.7 20.7 0 01-1.24-7.28c0-2.68.39-5.16 1.16-7.43a19 19 0 013.33-5.96 15.15 15.15 0 015.11-3.95c1.96-.93 4.08-1.4 6.35-1.4 2.53 0 4.8.5 6.81 1.48 2.07.93 3.82 2.22 5.27 3.87a17.18 17.18 0 013.32 5.96 22.9 22.9 0 011.17 7.43zm-7.13-.07c0-3.88-.85-7-2.55-9.37a7.93 7.93 0 00-6.9-3.56c-1.33 0-2.55.33-3.63 1a8.2 8.2 0 00-2.79 2.71 13 13 0 00-1.78 4.1 19.8 19.8 0 00-.62 5.12c0 3.76.83 6.78 2.48 9.05a7.82 7.82 0 006.66 3.41c2.63 0 4.8-1.11 6.5-3.33 1.76-2.22 2.63-5.26 2.63-9.13zM191.72 57.5l-2.97.12a9.18 9.18 0 00-3.33 1.16 11.55 11.55 0 00-3.02 2.32 15.37 15.37 0 00-3.8 7.28v17.27h-6.96V50.96h5.96l.62 7.2h.54a12.81 12.81 0 011.86-2.94c.78-.98 1.63-1.8 2.56-2.48.92-.72 1.9-1.29 2.94-1.7a8.2 8.2 0 013.25-.7l2.35 7.15zM202.72 105c-5.28-4.4-6.16-5.28-6.16-5.28s3.52-7.48 7.36-15.86l-12.39-32.9h7.2l8.6 23.46h.3l8.75-23.46h7.2L202.71 105z"/><path fill="#1E326E" d="M237.03 39.35v47.17h-7.28V39.35h-13.51V33h34.3v6.35h-13.51z"/><path fill="#1E326E" d="M275.32 68.61c0 2.64-.44 5.06-1.32 7.28a16.9 16.9 0 01-8.67 9.52 15.9 15.9 0 01-12.7 0 17.03 17.03 0 01-5.18-3.8 17.6 17.6 0 01-3.4-5.72 20.7 20.7 0 01-1.25-7.28c0-2.68.4-5.16 1.16-7.43a19.03 19.03 0 013.33-5.96 15.16 15.16 0 015.11-3.95c1.97-.93 4.08-1.4 6.35-1.4 2.53 0 4.8.5 6.81 1.48 2.07.93 3.82 2.22 5.27 3.87a17.18 17.18 0 013.33 5.96 22.9 22.9 0 011.16 7.43zm-7.12-.07c0-3.88-.85-7-2.56-9.37a7.93 7.93 0 00-6.89-3.56c-1.34 0-2.55.33-3.64 1a8.2 8.2 0 00-2.78 2.71 12.97 12.97 0 00-1.78 4.1 19.8 19.8 0 00-.62 5.12c0 3.76.82 6.78 2.47 9.05a7.82 7.82 0 006.66 3.41c2.63 0 4.8-1.11 6.5-3.33 1.76-2.22 2.64-5.26 2.64-9.13zM299.82 65.75l-7.66 20.98h-2.33l-13.85-35.77h7.2l7.9 21.76h.3l7.74-22.22h2.02l7.43 22.22h.3l7.44-21.76h7.2l-13.86 35.77h-2.32l-7.04-20.98h-.47zM330.36 70.24c0 2.01.26 3.71.78 5.1a9.18 9.18 0 002.01 3.26 7.8 7.8 0 003.02 1.78 12.55 12.55 0 008.52-.46c1.7-.73 3.12-1.63 4.25-2.71h.24l1.31 5.57a14.4 14.4 0 01-4.95 2.87 18.93 18.93 0 01-6.58 1.08c-2.12 0-4.13-.34-6.04-1-1.86-.68-3.51-1.71-4.96-3.1-1.44-1.4-2.6-3.2-3.48-5.42a22.9 22.9 0 01-1.24-7.98c0-2.84.39-5.44 1.16-7.82a18.96 18.96 0 013.41-6.11 15.38 15.38 0 015.03-3.95 14 14 0 016.35-1.47c2.06 0 3.92.36 5.57 1.08 1.66.72 3.05 1.73 4.19 3.02a12.44 12.44 0 012.7 4.41c.62 1.7.93 3.51.93 5.42-.3 2.04-1.19 2.04-2.94 2.48l-19.28 3.95zm13.12-7.47c2.06-.44 2.37-.4 2.06-1.59a7.1 7.1 0 00-1.4-3.02 5.8 5.8 0 00-2.32-1.86c-.88-.46-1.8-.7-2.78-.7a8.16 8.16 0 00-5.96 2.79 9.98 9.98 0 00-1.7 3.1 12.4 12.4 0 00-.7 3.8l12.8-2.52zM376.9 50.34v7.28h-2.47a9.18 9.18 0 00-3.33 1.16 11.54 11.54 0 00-3.02 2.32 15.33 15.33 0 00-3.8 7.28v17.27h-6.96V50.96h5.96l.62 7.2h.54a12.81 12.81 0 011.86-2.94c.78-.98 1.63-1.8 2.56-2.48.93-.72 1.9-1.29 2.94-1.7a8.2 8.2 0 013.25-.7h1.86zM0 61l30.06-43L8.71 73.47 0 61zm15.69 21.93l7.4 10.75 7.41-75.25-14.81 64.5zM37.9 28.75L30.5 104l15.25-64.5-7.84-10.75zm14.81 20.21L61 61l-30.06 43 21.78-55.04z"/></svg>